<svg viewBox="0 0 40 35" fill="none" xmlns="http://www.w3.org/2000/svg">
<path d="M0 12.3746V11.9215C0 6.46057 3.94688 1.80276 9.32812 0.905885C12.8203 0.312916 16.5156 1.47385 19.0625 4.02463L20 4.96057L20.8672 4.02463C23.4844 1.47385 27.1094 0.312916 30.6719 0.905885C36.0547 1.80276 40 6.46057 40 11.9215V12.3746C40 15.6168 38.6562 18.7184 36.2812 20.9293L22.1641 34.109C21.5781 34.6559 20.8047 34.9606 20 34.9606C19.1953 34.9606 18.4219 34.6559 17.8359 34.109L3.71797 20.9293C1.34609 18.7184 2.34375e-05 15.6168 2.34375e-05 12.3746H0Z" fill="currentColor"/>
</svg>
