<svg viewBox="0 0 40 41" fill="none" xmlns="http://www.w3.org/2000/svg">
<path d="M39.0859 35.519L29.7343 26.1675C31.8609 23.0104 32.9101 19.0659 32.3484 14.8628C31.3906 7.71355 25.5312 1.89558 18.3749 0.989563C7.7351 -0.356765 -1.21178 8.59011 0.134628 19.23C1.04088 26.3893 6.85963 32.2534 14.0096 33.2065C18.2128 33.7682 22.1581 32.7193 25.3143 30.5925L34.6659 39.944C35.8862 41.1643 37.8651 41.1643 39.0854 39.944C40.3046 38.7221 40.3046 36.7378 39.0859 35.519ZM6.17963 17.105C6.17963 11.5909 10.6656 7.10495 16.1796 7.10495C21.6937 7.10495 26.1796 11.5909 26.1796 17.105C26.1796 22.619 21.6937 27.105 16.1796 27.105C10.6656 27.105 6.17963 22.6206 6.17963 17.105Z" fill="currentColor"/>
</svg>
